<mxfile host="app.diagrams.net" modified="2023-09-03T11:58:57.290Z" agent="Mozilla/5.0 (Windows NT 10.0; Win64; x64) AppleWebKit/537.36 (KHTML, like Gecko) Chrome/116.0.0.0 Safari/537.36" etag="rCmk_N5skuHB05Al8Jgk" version="21.7.2" type="github">
  <diagram name="Page-1" id="lEdNdB1fQgmqg2cFQhWN">
    <mxGraphModel dx="2514" dy="1274" grid="1" gridSize="10" guides="1" tooltips="1" connect="1" arrows="1" fold="1" page="1" pageScale="1" pageWidth="850" pageHeight="1100" math="0" shadow="0">
      <root>
        <mxCell id="0" />
        <mxCell id="1" parent="0" />
        <mxCell id="3j7qD8qCW-TUODBhbnb0-1" value="" style="whiteSpace=wrap;html=1;aspect=fixed;" vertex="1" parent="1">
          <mxGeometry x="70" y="100" width="270" height="270" as="geometry" />
        </mxCell>
        <mxCell id="3j7qD8qCW-TUODBhbnb0-2" value="" style="rounded=1;whiteSpace=wrap;html=1;" vertex="1" parent="1">
          <mxGeometry x="90" y="120" width="60" height="60" as="geometry" />
        </mxCell>
        <mxCell id="3j7qD8qCW-TUODBhbnb0-5" value="" style="rounded=1;whiteSpace=wrap;html=1;" vertex="1" parent="1">
          <mxGeometry x="175" y="120" width="60" height="60" as="geometry" />
        </mxCell>
        <mxCell id="3j7qD8qCW-TUODBhbnb0-6" value="" style="rounded=1;whiteSpace=wrap;html=1;" vertex="1" parent="1">
          <mxGeometry x="260" y="120" width="60" height="60" as="geometry" />
        </mxCell>
        <mxCell id="3j7qD8qCW-TUODBhbnb0-8" value="" style="rounded=1;whiteSpace=wrap;html=1;" vertex="1" parent="1">
          <mxGeometry x="90" y="200" width="60" height="60" as="geometry" />
        </mxCell>
        <mxCell id="3j7qD8qCW-TUODBhbnb0-9" value="" style="rounded=1;whiteSpace=wrap;html=1;" vertex="1" parent="1">
          <mxGeometry x="175" y="200" width="60" height="60" as="geometry" />
        </mxCell>
        <mxCell id="3j7qD8qCW-TUODBhbnb0-10" value="" style="rounded=1;whiteSpace=wrap;html=1;" vertex="1" parent="1">
          <mxGeometry x="260" y="200" width="60" height="60" as="geometry" />
        </mxCell>
        <mxCell id="3j7qD8qCW-TUODBhbnb0-17" style="edgeStyle=orthogonalEdgeStyle;rounded=0;orthogonalLoop=1;jettySize=auto;html=1;entryX=0.75;entryY=0.1;entryDx=0;entryDy=0;entryPerimeter=0;" edge="1" parent="1" source="3j7qD8qCW-TUODBhbnb0-11" target="3j7qD8qCW-TUODBhbnb0-16">
          <mxGeometry relative="1" as="geometry" />
        </mxCell>
        <mxCell id="3j7qD8qCW-TUODBhbnb0-11" value="" style="rounded=1;whiteSpace=wrap;html=1;" vertex="1" parent="1">
          <mxGeometry x="90" y="280" width="60" height="60" as="geometry" />
        </mxCell>
        <mxCell id="3j7qD8qCW-TUODBhbnb0-12" value="" style="rounded=1;whiteSpace=wrap;html=1;" vertex="1" parent="1">
          <mxGeometry x="175" y="280" width="60" height="60" as="geometry" />
        </mxCell>
        <mxCell id="3j7qD8qCW-TUODBhbnb0-13" value="" style="rounded=1;whiteSpace=wrap;html=1;" vertex="1" parent="1">
          <mxGeometry x="260" y="280" width="60" height="60" as="geometry" />
        </mxCell>
        <mxCell id="3j7qD8qCW-TUODBhbnb0-14" value="&lt;b&gt;All&amp;nbsp; products&lt;/b&gt;" style="text;html=1;strokeColor=none;fillColor=none;align=center;verticalAlign=middle;whiteSpace=wrap;rounded=0;" vertex="1" parent="1">
          <mxGeometry x="165" y="80" width="80" height="30" as="geometry" />
        </mxCell>
        <mxCell id="3j7qD8qCW-TUODBhbnb0-19" style="edgeStyle=orthogonalEdgeStyle;rounded=0;orthogonalLoop=1;jettySize=auto;html=1;entryX=0.25;entryY=1;entryDx=0;entryDy=0;" edge="1" parent="1" source="3j7qD8qCW-TUODBhbnb0-16" target="3j7qD8qCW-TUODBhbnb0-18">
          <mxGeometry relative="1" as="geometry" />
        </mxCell>
        <mxCell id="3j7qD8qCW-TUODBhbnb0-16" value="Actor" style="shape=umlActor;verticalLabelPosition=bottom;verticalAlign=top;html=1;outlineConnect=0;" vertex="1" parent="1">
          <mxGeometry x="30" y="480" width="30" height="60" as="geometry" />
        </mxCell>
        <mxCell id="3j7qD8qCW-TUODBhbnb0-20" style="edgeStyle=orthogonalEdgeStyle;rounded=0;orthogonalLoop=1;jettySize=auto;html=1;" edge="1" parent="1" source="3j7qD8qCW-TUODBhbnb0-18">
          <mxGeometry relative="1" as="geometry">
            <mxPoint x="1140" y="140" as="targetPoint" />
          </mxGeometry>
        </mxCell>
        <mxCell id="3j7qD8qCW-TUODBhbnb0-18" value="" style="image;html=1;image=img/lib/clip_art/finance/Shopping_Cart_128x128.png" vertex="1" parent="1">
          <mxGeometry x="710" y="90" width="80" height="80" as="geometry" />
        </mxCell>
        <mxCell id="3j7qD8qCW-TUODBhbnb0-23" style="edgeStyle=orthogonalEdgeStyle;rounded=0;orthogonalLoop=1;jettySize=auto;html=1;" edge="1" parent="1" source="3j7qD8qCW-TUODBhbnb0-21">
          <mxGeometry relative="1" as="geometry">
            <mxPoint x="1250" y="270" as="targetPoint" />
          </mxGeometry>
        </mxCell>
        <mxCell id="3j7qD8qCW-TUODBhbnb0-21" value="&lt;p style=&quot;margin:0px;margin-top:10px;text-align:center;&quot;&gt;&amp;lt;&amp;lt;quantityKind&amp;gt;&amp;gt;&lt;br/&gt;&lt;p style=&quot;margin:0px;margin-left:8px;text-align:center;&quot;&gt;&lt;b&gt;QuantityKind1&lt;/b&gt;&lt;/p&gt;" style="shape=rect;html=1;overflow=fill;whiteSpace=wrap;" vertex="1" parent="1">
          <mxGeometry x="1150" y="100" width="200" height="50" as="geometry" />
        </mxCell>
        <mxCell id="3j7qD8qCW-TUODBhbnb0-24" style="edgeStyle=orthogonalEdgeStyle;rounded=0;orthogonalLoop=1;jettySize=auto;html=1;" edge="1" parent="1" source="3j7qD8qCW-TUODBhbnb0-22">
          <mxGeometry relative="1" as="geometry">
            <mxPoint x="770" y="180" as="targetPoint" />
          </mxGeometry>
        </mxCell>
        <mxCell id="3j7qD8qCW-TUODBhbnb0-22" value="&lt;font style=&quot;font-size: 24px;&quot;&gt;Checkout payment&lt;/font&gt;" style="rounded=1;whiteSpace=wrap;html=1;" vertex="1" parent="1">
          <mxGeometry x="1215" y="290" width="120" height="60" as="geometry" />
        </mxCell>
        <mxCell id="3j7qD8qCW-TUODBhbnb0-25" value="&lt;font style=&quot;font-size: 24px;&quot;&gt;Product removed after checkit&lt;/font&gt;" style="rhombus;whiteSpace=wrap;html=1;" vertex="1" parent="1">
          <mxGeometry x="850" y="135" width="270" height="190" as="geometry" />
        </mxCell>
      </root>
    </mxGraphModel>
  </diagram>
</mxfile>
